<svg width="44" height="44" viewBox="0 0 44 44" fill="none" xmlns="http://www.w3.org/2000/svg">
<path d="M25.6666 14.6665H31.1666C34.2043 14.6665 36.6666 17.1289 36.6666 20.1665V40.3332H25.6666V14.6665Z" fill="white"/>
<path d="M7.33337 13.4607C7.33337 10.937 9.05101 8.73705 11.4994 8.12493L22.4994 5.37493C25.9707 4.50711 29.3334 7.13259 29.3334 10.7107V40.3331H7.33337V13.4607Z" fill="#98AAE9"/>
<path fill-rule="evenodd" clip-rule="evenodd" d="M14.6666 31.1668C14.6666 30.1543 15.4874 29.3335 16.5 29.3335H20.1666C21.1792 29.3335 22 30.1543 22 31.1668C22 32.1794 21.1792 33.0002 20.1666 33.0002H16.5C15.4874 33.0002 14.6666 32.1794 14.6666 31.1668Z" fill="white"/>
<path fill-rule="evenodd" clip-rule="evenodd" d="M14.6666 23.8333C14.6666 22.8208 15.4874 22 16.5 22H20.1666C21.1792 22 22 22.8208 22 23.8333C22 24.8459 21.1792 25.6667 20.1666 25.6667H16.5C15.4874 25.6667 14.6666 24.8459 14.6666 23.8333Z" fill="white"/>
<path fill-rule="evenodd" clip-rule="evenodd" d="M14.6666 16.4998C14.6666 15.4873 15.4874 14.6665 16.5 14.6665H20.1666C21.1792 14.6665 22 15.4873 22 16.4998C22 17.5123 21.1792 18.3332 20.1666 18.3332H16.5C15.4874 18.3332 14.6666 17.5123 14.6666 16.4998Z" fill="white"/>
<path fill-rule="evenodd" clip-rule="evenodd" d="M3.66663 38.4998C3.66663 37.4873 4.48745 36.6665 5.49996 36.6665H38.5C39.5125 36.6665 40.3333 37.4873 40.3333 38.4998C40.3333 39.5124 39.5125 40.3332 38.5 40.3332H5.49996C4.48745 40.3332 3.66663 39.5124 3.66663 38.4998Z" fill="#98AAE9"/>
</svg>
