<svg width="20" height="20" viewBox="0 0 20 20" fill="none" xmlns="http://www.w3.org/2000/svg">
<g clip-path="url(#clip0_121_53337)">
<path d="M15.3438 19.156C12.7813 19.156 9.09376 17.3123 5.71876 14.0935C1.12501 9.7185 -0.843743 4.8435 1.15626 2.7185C1.25001 2.62475 1.34376 2.56225 1.46876 2.49975L4.09376 1.031C4.68751 0.718502 5.43751 0.874752 5.81251 1.406L7.71876 4.12475C7.90626 4.406 8.00001 4.74975 7.93751 5.06225C7.87501 5.406 7.68751 5.68725 7.40626 5.87475L6.25001 6.62475C6.18751 6.656 6.18751 6.68725 6.18751 6.7185C6.18751 6.74975 6.18751 6.781 6.21876 6.81225C7.06251 8.06225 9.46876 11.2498 13.2813 13.531C13.375 13.5935 13.5313 13.5623 13.5938 13.4998L14.4063 12.406C14.8125 11.8435 15.5938 11.7185 16.1875 12.0935L19.0313 13.906C19.625 14.281 19.8125 15.031 19.4375 15.6248L17.875 18.1248C17.8125 18.2498 17.7188 18.3435 17.625 18.406C17.0313 18.9373 16.25 19.156 15.3438 19.156ZM4.75001 1.93725C4.71876 1.93725 4.68751 1.93725 4.62501 1.9685L2.00001 3.43725C1.96876 3.4685 1.96876 3.4685 1.93751 3.4685C0.625007 4.87475 2.12501 9.156 6.50001 13.3123C10.875 17.4685 15.4063 18.906 16.9063 17.6248C16.9063 17.6248 16.9063 17.6248 16.9375 17.5935L18.5 15.0935C18.5313 15.031 18.5313 14.9373 18.4375 14.8748L15.5938 13.0623C15.5 12.9998 15.3438 13.031 15.2813 13.0935L14.4688 14.1873C14.0625 14.7185 13.3125 14.8748 12.7188 14.531C8.68751 12.1248 6.18751 8.781 5.31251 7.43725C5.12501 7.156 5.06251 6.8435 5.12501 6.49975C5.18751 6.18725 5.37501 5.87475 5.65626 5.7185L6.81251 4.93725C6.87501 4.906 6.87501 4.87475 6.87501 4.8435C6.87501 4.81225 6.87501 4.781 6.84376 4.7185L4.93751 1.99975C4.90626 1.9685 4.81251 1.93725 4.75001 1.93725Z" fill="white"/>
</g>
<defs>
<clipPath id="clip0_121_53337">
<rect width="20" height="20" fill="white"/>
</clipPath>
</defs>
</svg>
